<mxfile host="app.diagrams.net" modified="2024-05-26T13:44:12.872Z" agent="Mozilla/5.0 (X11; Ubuntu; Linux x86_64; rv:125.0) Gecko/20100101 Firefox/125.0" version="24.4.8" etag="Ztx-Tsm_QV8sVxjG03Kt" type="github">
  <diagram name="Page-1" id="DhksMH_Xr3f2Bux2bkq8">
    <mxGraphModel>
      <root>
        <mxCell id="0" />
        <mxCell id="1" parent="0" />
      </root>
    </mxGraphModel>
  </diagram>
</mxfile>
